<?xml version="1.0" standalone="no"?>
<!DOCTYPE svg PUBLIC "-//W3C//DTD SVG 20010904//EN"
 "http://www.w3.org/TR/2001/REC-SVG-20010904/DTD/svg10.dtd">
<svg version="1.0" xmlns="http://www.w3.org/2000/svg"
 width="500.000000pt" height="500.000000pt" viewBox="0 0 500.000000 500.000000"
 preserveAspectRatio="xMidYMid meet">

<g transform="translate(0.000000,500.000000) scale(0.100000,-0.100000)"
fill="#000000" stroke="none">
<path d="M0 2500 l0 -2500 2500 0 2500 0 0 2500 0 2500 -2500 0 -2500 0 0
-2500z m3968 1864 c63 -31 107 -88 123 -161 11 -46 10 -62 -4 -107 -33 -103
-122 -166 -237 -166 -114 0 -206 64 -235 163 -19 63 -19 71 0 134 17 58 70
117 129 144 63 28 159 25 224 -7z m-1401 -588 c55 -23 75 -72 98 -234 16 -114
37 -208 63 -273 12 -30 75 -83 118 -100 29 -11 147 -13 194 -4 45 9 277 6 344
-5 84 -13 223 -62 305 -107 220 -119 395 -337 475 -591 176 -558 -78 -1153
-578 -1352 -119 -48 -204 -63 -346 -63 -174 0 -255 19 -473 109 -75 30 -74 31
-167 -29 -32 -20 -47 -22 -185 -22 -174 0 -213 6 -255 42 -38 31 -53 67 -73
169 -38 187 -39 210 -38 589 1 295 -2 398 -13 460 -8 44 -17 101 -20 126 -2
26 -12 63 -20 84 -9 21 -14 40 -12 43 3 2 -4 26 -15 53 -10 28 -19 59 -19 69
0 11 -4 20 -10 20 -5 0 -10 -7 -10 -15 0 -8 -7 -15 -15 -15 -8 0 -15 -9 -15
-20 0 -26 -36 -62 -86 -88 -40 -20 -53 -23 -174 -42 -96 -14 -103 -16 -144
-38 -73 -39 -141 -160 -156 -277 -16 -126 -10 -343 12 -455 6 -25 49 -103 75
-135 29 -34 132 -73 198 -74 59 -2 167 -29 188 -49 50 -45 61 -106 43 -241
-22 -165 -48 -188 -227 -203 -353 -29 -565 25 -711 181 -133 140 -189 311
-203 616 -12 250 -25 440 -35 480 -5 22 -12 61 -15 87 -10 74 -40 103 -143
134 -148 44 -172 80 -172 259 0 180 24 214 175 251 76 18 130 46 145 73 11 21
36 130 61 261 25 140 36 164 78 179 20 7 102 15 186 18 231 8 252 -8 294 -218
23 -118 62 -204 105 -230 48 -29 151 -57 259 -69 101 -11 146 -25 184 -59 27
-23 73 -111 73 -139 0 -81 43 -118 52 -44 3 21 15 58 26 83 45 98 97 349 117
564 18 189 49 239 155 259 61 11 266 -1 307 -18z m-630 -1062 c-3 -3 -12 -4
-19 -1 -8 3 -5 6 6 6 11 1 17 -2 13 -5z"/>
<path d="M3083 2550 c-53 -12 -117 -56 -176 -120 -77 -82 -101 -129 -128 -239
-20 -83 -21 -100 -11 -160 27 -157 123 -301 239 -358 66 -32 70 -33 144 -40
240 -23 459 198 459 463 0 88 -16 160 -50 230 -32 65 -104 154 -124 154 -7 0
-21 8 -32 18 -11 9 -26 19 -34 21 -8 2 -39 12 -69 23 -56 19 -158 23 -218 8z"/>
</g>
</svg>
